<?xml version="1.0" encoding="utf-8"?>
<!-- Generator: Adobe Illustrator 26.0.3, SVG Export Plug-In . SVG Version: 6.00 Build 0)  -->
<svg version="1.1" id="Layer_1" xmlns="http://www.w3.org/2000/svg" xmlns:xlink="http://www.w3.org/1999/xlink" x="0px" y="0px"
	 viewBox="0 0 439.5 439.5" style="enable-background:new 0 0 439.5 439.5;" xml:space="preserve">
<style type="text/css">
	.st0{clip-path:url(#SVGID_00000021821012405847827360000007088070292615595909_);}
	.st1{clip-path:url(#SVGID_00000050652260569782767450000011090219836886670258_);}
	.st2{clip-path:url(#SVGID_00000127739192193898347280000007073375535765440917_);}
	.st3{clip-path:url(#SVGID_00000044160236178061699320000017682798678813101226_);}
	.st4{clip-path:url(#SVGID_00000101071087331532143260000007078103038454043817_);}
	.st5{clip-path:url(#SVGID_00000135677022705997511560000000974364653032685456_);}
	.st6{fill:#3B82F6;}
</style>
<g>
	<defs>
		<rect id="SVGID_1_" x="201" y="87.7" width="160.9" height="263.5"/>
	</defs>
	<clipPath id="SVGID_00000096039962758374996920000014887690110988953019_">
		<use xlink:href="#SVGID_1_"  style="overflow:visible;"/>
	</clipPath>
	<g style="clip-path:url(#SVGID_00000096039962758374996920000014887690110988953019_);">
		<g>
			<defs>
				
					<rect id="SVGID_00000083059574342205500240000010552427098858004660_" x="77.7" y="86.2" transform="matrix(1 -2.320009e-03 2.320009e-03 1 -0.5093 0.5103)" width="284.1" height="267.1"/>
			</defs>
			<clipPath id="SVGID_00000060006200844923175650000014235935517983412353_">
				<use xlink:href="#SVGID_00000083059574342205500240000010552427098858004660_"  style="overflow:visible;"/>
			</clipPath>
			<g style="clip-path:url(#SVGID_00000060006200844923175650000014235935517983412353_);">
				<g>
					<defs>
						
							<rect id="SVGID_00000123411584586479359760000009224749874162383282_" x="77.7" y="86.2" transform="matrix(1 -2.323352e-03 2.323352e-03 1 -0.51 0.5111)" width="284.1" height="267.1"/>
					</defs>
					<clipPath id="SVGID_00000024701285759086044340000004721717631846639516_">
						<use xlink:href="#SVGID_00000123411584586479359760000009224749874162383282_"  style="overflow:visible;"/>
					</clipPath>
					<g style="clip-path:url(#SVGID_00000024701285759086044340000004721717631846639516_);">
						<path d="M253.5,193.1C253.6,193.1,253.6,193.1,253.5,193.1c1.7,0,3.1,1.4,3.1,3.1c0,0,0,0,0,0l0.2,67.9c0,0-0.1-30.9-0.1-30.9
							l0.1,63.8c0.1,27.9,21.1,52.3,49,54.1c30.6,2,56-22.4,56-52.5l-0.4-158.3c-0.1-28.4-22.8-52.1-51.2-52.4
							c-60.2-0.6-109.4,48.3-109.2,108.3l0.1,27.1c0,0.6,0.8,0.8,1.1,0.3C212.2,205.5,231.4,193.1,253.5,193.1z"/>
					</g>
				</g>
			</g>
		</g>
	</g>
</g>
<g>
	<defs>
		<rect id="SVGID_00000148635751593982264230000009458608611837275040_" x="77.5" y="88.2" width="160.9" height="263.5"/>
	</defs>
	<clipPath id="SVGID_00000072989544598423608760000014480588327141087619_">
		<use xlink:href="#SVGID_00000148635751593982264230000009458608611837275040_"  style="overflow:visible;"/>
	</clipPath>
	<g style="clip-path:url(#SVGID_00000072989544598423608760000014480588327141087619_);">
		<g>
			<defs>
				
					<rect id="SVGID_00000099620422800417454420000010601363385349896090_" x="77.7" y="86.2" transform="matrix(1 -2.320009e-03 2.320009e-03 1 -0.5093 0.5103)" width="284.1" height="267.1"/>
			</defs>
			<clipPath id="SVGID_00000067948547266532687990000005759053191689114765_">
				<use xlink:href="#SVGID_00000099620422800417454420000010601363385349896090_"  style="overflow:visible;"/>
			</clipPath>
			<g style="clip-path:url(#SVGID_00000067948547266532687990000005759053191689114765_);">
				<g>
					<defs>
						
							<rect id="SVGID_00000104667845987493567860000000690529189838622862_" x="77.7" y="86.2" transform="matrix(1 -2.323352e-03 2.323352e-03 1 -0.51 0.5111)" width="284.1" height="267.1"/>
					</defs>
					<clipPath id="SVGID_00000145030536486633785370000016638462210950241202_">
						<use xlink:href="#SVGID_00000104667845987493567860000000690529189838622862_"  style="overflow:visible;"/>
					</clipPath>
					<g style="clip-path:url(#SVGID_00000145030536486633785370000016638462210950241202_);">
						<path class="st6" d="M182.8,243.4l-0.1-55.6l-0.1-45.2c-0.1-27.9-21.1-52.3-49-54.1c-30.6-2-56,22.4-56,52.5L78,299.3
							c0.1,28.4,22.8,52.1,51.2,52.4c60.2,0.6,109.4-48.3,109.2-108.3l-0.1-27.1c0-0.6-0.8-0.8-1.1-0.3
							c-10,18.2-29.2,30.6-51.4,30.6C184.2,246.5,182.8,245.1,182.8,243.4z"/>
					</g>
				</g>
			</g>
		</g>
	</g>
</g>
</svg>
