<svg xmlns="http://www.w3.org/2000/svg" width="50" height="50" viewBox="0 0 315 377.91"><defs><style>.cls-1{fill:#003049;}.cls-2{fill:#ed1c24;}.cls-3{fill:#030404;}.cls-4{fill:#1d5173;}</style></defs><g id="Layer_2" data-name="Layer 2"><g id="Layer_1-2" data-name="Layer 1"><path class="cls-1" d="M315,68.44q0,60.51,0,121c0,6.51-.16,13-.74,19.53-3.35,37.7-17.76,70.64-42.74,99-22.9,26-51.05,44.66-82.37,58.91-9.32,4.24-19,7.39-28.58,11.06H153.9c-.8-1.33-2.27-1.24-3.49-1.64-35-11.86-66.59-29.49-93.61-54.84C21.5,288.29,1.52,247.69.51,199-.42,154.77.21,110.49.22,66.21.22,59.93,3,56.41,9.49,54Q67.58,32.55,125.68,11c9.68-3.61,19.54-6.77,29-11h5.9c.11.2.19.5.35.57L304.67,53.68C313,56.76,315,59.63,315,68.44ZM299.6,198.33c.78-43,.22-86.06.33-129.1,0-2.36-1.08-3-3-3.73Q228.5,40.22,160.12,14.81a6.48,6.48,0,0,0-4.86,0Q87.06,40.13,18.8,65.32c-2.62,1-3.56,2.09-3.54,4.93.13,22.11.07,44.21.07,66.32h.07c0,20-.29,40,.06,60,.66,36.84,12.7,69.63,36.23,98,27.64,33.34,63.29,54.77,103.74,68.92,2.29.8,4.12.19,6-.48,32.13-11.05,61.33-27.17,86.16-50.58C280.43,281.51,298.78,243.62,299.6,198.33Z"/><path class="cls-2" d="M299.93,69.23c-.11,43,.45,86.08-.33,129.1-.82,45.29-19.17,83.18-52,114.13C222.8,335.87,193.6,352,161.47,363c-1.92.67-3.75,1.28-6,.48C115,349.37,79.33,327.94,51.69,294.6c-23.53-28.37-35.57-61.16-36.23-98-.35-20-.06-40-.06-60h-.07c0-22.11.06-44.21-.07-66.32,0-2.84.92-4,3.54-4.93Q87.07,40.17,155.26,14.78a6.48,6.48,0,0,1,4.86,0Q228.51,40.19,296.94,65.5C298.85,66.2,299.94,66.87,299.93,69.23Z"/><path class="cls-3" d="M39.5,147c.69-.14.65-.8.82-1.25a13.44,13.44,0,0,1,8.18-8.16q10.16-3.94,20.32-7.85c2.88-1.1,3.73-.82,5.66,1.67.3,2.54-.9,4-3.24,4.85-6.46,2.41-12.86,5-19.33,7.41-3.18,1.18-5.29,3.09-5.47,6.62-.16,3.22,1.56,5.45,5.31,6.95q17.63,7,35.54,13.32c20.82,7.36,41.87,14,63.07,20.14a25.59,25.59,0,0,0,14.56-.09q16.14-4.89,32.27-9.78c3-.92,5.95-2,9.35-3.08l-1.74-.88-48-22.87c-2.58-1.24-3.38-3.09-2.33-5.11s2.87-2.31,5.37-1.12q11.33,5.39,22.65,10.79,16.29,7.8,32.55,15.66a2.48,2.48,0,0,0,2.16,0q23.43-7.93,46.4-17.11c3.47-1.38,5.08-3.64,4.95-6.74-.13-3.4-2.1-5.36-5.18-6.59-32.3-12.84-65.24-23.77-98.61-33.46a22.87,22.87,0,0,0-12.93-.4c-22.1,6.36-44,13.24-65.72,20.92-2.63.93-3.78.57-5.44-1.79-.41-2.44.62-3.88,2.95-4.7,21.8-7.72,43.85-14.61,66.05-21.06,5.85-1.7,11.65-1.22,17.46.47,33.14,9.67,65.86,20.58,98,33.21,5.32,2.08,8.8,5.52,10.35,11l-.47,6.32c-.07.15-.1.34-.16.5-1.5,4.45-4.62,7.22-8.93,8.92-11.72,4.63-23.5,9.1-35.41,13.23a2.6,2.6,0,0,0-2.11,3.06c.13,4.9-.07,9.81.09,14.71.1,2.89-.36,5.15-3.59,5.86-2.46-.61-3.48-2.15-3.4-4.69.11-3.37,0-6.73,0-10.1,0-1.45.05-2.9.07-4.35,0-.66,0-1.13-1-1-3.31.53-4.06,1.32-4,4.63,0,.69,0,1.37.06,2.06q0,13.89-.07,27.79c0,1.37,0,2.75,0,4.13,0,1,.26,1.31,1.35,1,2.68-.87,3.7-2.14,3.72-5,0-1.15,0-2.3,0-3.45,0-2.71.73-3.59,3.42-4.32,2.72.69,3.45,1.59,3.49,4.29,0,1.42,0,2.84,0,4.26A10.4,10.4,0,0,1,221.24,226c-3.94,1.24-5.61,3.3-4.79,7.37a8.36,8.36,0,0,1,0,2.29c-.29,3.5-.22,6.33,4,8.14,3.54,1.53,5.24,5.34,5.33,9.35.14,6.3.1,12.6.05,18.89,0,2.42-1.3,3.61-3.77,3.63q-9.1,0-18.2,0c-2.42,0-3.71-1.23-3.74-3.7-.07-6.14-.17-12.29.05-18.43.2-5.38,3.06-9.19,8-11.39.81-.36,1.47-.55,1.44-1.69-.08-3.12,0-6.25,0-9.5-7.31,2.6-14.39,5.26-21.57,7.62-8.87,2.9-17.82,5.57-26.75,8.31a11.56,11.56,0,0,1-6.79-.09,538.32,538.32,0,0,1-59.2-20.48c-5.73-2.39-7.77-5.4-7.77-11.64,0-11.51,0-23,0-34.55,0-1.69-.55-2.33-2.08-2.86-12-4.16-23.86-8.71-35.71-13.28-4.63-1.79-8.11-4.56-9.66-9.41-.1-.3-.19-.58-.56-.62Zm170,42.89c0-1,.07-2,.07-3,0-2.8,0-2.81-2.55-2-11.84,4-23.84,7.42-35.76,11.15-7.67,2.4-15.23,3.61-23.21,1.22-17.1-5.13-34.18-10.31-51.08-16-2.57-.87-2.58-.86-2.58,1.91,0,10.6,0,21.2,0,31.79,0,2.52,1.07,3.93,3.35,4.87q22.42,9.27,45.63,16.37c4.82,1.47,9.56,3.29,14.6,4a11.58,11.58,0,0,0,2-.21c16.29-4.67,32.37-10,48.2-16.05a1.86,1.86,0,0,0,1.4-2C209.52,211.24,209.51,200.57,209.49,189.9Zm9.43,70.71h0c0-2.3.09-4.6,0-6.9a5.84,5.84,0,0,0-5.6-5.64,5.73,5.73,0,0,0-6,5.13c-.29,3.81-.18,7.65-.2,11.49,0,4,0,4.06,4.1,4,2.52,0,5.83.84,7.33-.42s.31-4.74.47-7.24C218.92,260.92,218.92,260.76,218.92,260.61Z"/><path class="cls-4" d="M225,207.21c-2.69.73-3.39,1.61-3.42,4.32,0,1.15,0,2.3,0,3.45,0,2.88-1,4.15-3.72,5-1.09.35-1.38.08-1.35-1,0-1.38,0-2.76,0-4.13q0-13.9.07-27.79c1.68-.32,3.18-1.3,4.93-1.37,0,3.37.15,6.73,0,10.1-.08,2.54.94,4.08,3.4,4.69C224.94,202.76,225,205,225,207.21Z"/><path class="cls-1" d="M80.68,129.05c1.66,2.36,2.81,2.72,5.44,1.79,21.68-7.68,43.62-14.56,65.72-20.92a22.87,22.87,0,0,1,12.93.4c33.37,9.69,66.31,20.62,98.61,33.46,3.08,1.23,5.05,3.19,5.18,6.59.13,3.1-1.48,5.36-4.95,6.74q-23,9.16-46.4,17.11a2.48,2.48,0,0,1-2.16,0q-16.25-7.89-32.55-15.66-11.33-5.41-22.65-10.79c-2.5-1.19-4.38-.79-5.37,1.12s-.25,3.87,2.33,5.11l48,22.87,1.74.88c-3.4,1.12-6.35,2.16-9.35,3.08q-16.38,5-32.79,9.93a24.08,24.08,0,0,1-14-.06c-21.2-6.17-42.25-12.78-63.07-20.14q-17.9-6.31-35.54-13.32c-3.75-1.5-5.47-3.73-5.31-6.95.18-3.53,2.29-5.44,5.47-6.62,6.47-2.4,12.87-5,19.33-7.41,2.34-.88,3.54-2.31,3.24-4.85Z"/><path class="cls-1" d="M157.93,240.2c-5-.7-9.78-2.52-14.6-4q-23.21-7.1-45.63-16.37c-2.28-.94-3.37-2.35-3.35-4.87.07-10.59,0-21.19,0-31.79,0-2.77,0-2.78,2.58-1.91,16.9,5.74,34,10.92,51.08,16,8,2.39,15.54,1.18,23.21-1.22,11.92-3.73,23.92-7.18,35.76-11.15,2.54-.85,2.56-.84,2.55,2,0,1,0,2-.07,3a6,6,0,0,0-1.13.14c-9.92,3.1-19.8,6.32-29.76,9.28-6.06,1.81-12,4.1-18.33,4.93-1.6.2-2.38.88-2.36,2.8C158,218.1,157.94,229.15,157.93,240.2Z"/><path class="cls-4" d="M157.93,240.2c0-11,.08-22.1,0-33.15,0-1.92.76-2.6,2.36-2.8,6.33-.83,12.27-3.12,18.33-4.93,10-3,19.84-6.18,29.76-9.28a6,6,0,0,1,1.13-.14c0,10.67,0,21.34.09,32a1.86,1.86,0,0,1-1.4,2C192.35,230,176.27,235.32,160,240A11.58,11.58,0,0,1,157.93,240.2Z"/><path class="cls-1" d="M218.92,260.61c0,.15,0,.31,0,.46-.16,2.5,1.1,5.92-.47,7.24s-4.81.41-7.33.42c-4.1,0-4.12,0-4.1-4,0-3.84-.09-7.68.2-11.49a5.73,5.73,0,0,1,6-5.13,5.84,5.84,0,0,1,5.6,5.64c.11,2.3,0,4.6,0,6.9Z"/><path class="cls-1" d="M221.48,185.75c-1.75.07-3.25,1.05-4.93,1.37,0-.69-.06-1.37-.06-2.06,0-3.31.74-4.1,4-4.63,1-.16,1,.31,1,1C221.53,182.85,221.5,184.3,221.48,185.75Z"/></g></g></svg>