<?xml version="1.0" encoding="utf-8"?>
<!-- Generator: Adobe Illustrator 26.0.3, SVG Export Plug-In . SVG Version: 6.00 Build 0)  -->
<svg version="1.1" id="Layer_1" xmlns="http://www.w3.org/2000/svg" xmlns:xlink="http://www.w3.org/1999/xlink" x="0px" y="0px"
	 viewBox="0 0 298.5 281.5" style="enable-background:new 0 0 298.5 281.5;" xml:space="preserve">
<style type="text/css">
	.st0{clip-path:url(#SVGID_00000034063194864277101320000009563485187828353155_);}
	.st1{clip-path:url(#SVGID_00000070830862795402267520000002482620373664011434_);}
	.st2{clip-path:url(#SVGID_00000168102683316584651150000012345498913615711148_);}
	.st3{clip-path:url(#SVGID_00000108993762477407525160000001975856637101126022_);}
	.st4{clip-path:url(#SVGID_00000070079969786408827030000001439584219761950128_);}
	.st5{clip-path:url(#SVGID_00000099641546060963071080000006742427383542958765_);}
	.st6{fill:#3B82F6;}
</style>
<g>
	<g>
		<defs>
			<rect id="SVGID_1_" x="130.5" y="8.7" width="160.9" height="263.5"/>
		</defs>
		<clipPath id="SVGID_00000018195935451647125340000001462626199404026768_">
			<use xlink:href="#SVGID_1_"  style="overflow:visible;"/>
		</clipPath>
		<g style="clip-path:url(#SVGID_00000018195935451647125340000001462626199404026768_);">
			<g>
				<g>
					<defs>
						
							<rect id="SVGID_00000168809658135932575750000007723509345066758066_" x="7.2" y="7.2" transform="matrix(1 -2.320003e-03 2.320003e-03 1 -0.3261 0.3466)" width="284.1" height="267.1"/>
					</defs>
					<clipPath id="SVGID_00000021092553959567023370000009044002748440829588_">
						<use xlink:href="#SVGID_00000168809658135932575750000007723509345066758066_"  style="overflow:visible;"/>
					</clipPath>
					<g style="clip-path:url(#SVGID_00000021092553959567023370000009044002748440829588_);">
						<g>
							<g>
								<defs>
									
										<rect id="SVGID_00000181089661223203195750000009638763850263180208_" x="7.2" y="7.2" transform="matrix(1 -2.323346e-03 2.323346e-03 1 -0.3266 0.3471)" width="284.1" height="267.1"/>
								</defs>
								<clipPath id="SVGID_00000129174329124505706410000004116788457317388447_">
									<use xlink:href="#SVGID_00000181089661223203195750000009638763850263180208_"  style="overflow:visible;"/>
								</clipPath>
								<g style="clip-path:url(#SVGID_00000129174329124505706410000004116788457317388447_);">
									<path d="M183,114.1C183.1,114.1,183.1,114.1,183,114.1c1.7,0,3.1,1.4,3.1,3.1l0,0l0.2,67.9l-0.1-30.9l0.1,63.8
										c0.1,27.9,21.1,52.3,49,54.1c30.6,2,56-22.4,56-52.5l-0.4-158.3c-0.1-28.4-22.8-52.1-51.2-52.4
										c-60.2-0.6-109.4,48.3-109.2,108.3l0.1,27.1c0,0.6,0.8,0.8,1.1,0.3C141.7,126.5,160.9,114.1,183,114.1z"/>
								</g>
							</g>
						</g>
					</g>
				</g>
			</g>
		</g>
	</g>
</g>
<g>
	<g>
		<defs>
			<rect id="SVGID_00000134972056716743738090000003581522137461047219_" x="7" y="9.2" width="160.9" height="263.5"/>
		</defs>
		<clipPath id="SVGID_00000072259695359719816140000014774696371677647242_">
			<use xlink:href="#SVGID_00000134972056716743738090000003581522137461047219_"  style="overflow:visible;"/>
		</clipPath>
		<g style="clip-path:url(#SVGID_00000072259695359719816140000014774696371677647242_);">
			<g>
				<g>
					<defs>
						
							<rect id="SVGID_00000155843559836165307820000005184383425967386258_" x="7.2" y="7.2" transform="matrix(1 -2.320003e-03 2.320003e-03 1 -0.3261 0.3466)" width="284.1" height="267.1"/>
					</defs>
					<clipPath id="SVGID_00000007408939106460094680000014611424587891601541_">
						<use xlink:href="#SVGID_00000155843559836165307820000005184383425967386258_"  style="overflow:visible;"/>
					</clipPath>
					<g style="clip-path:url(#SVGID_00000007408939106460094680000014611424587891601541_);">
						<g>
							<g>
								<defs>
									
										<rect id="SVGID_00000097473211571495242370000010234570858000953511_" x="7.2" y="7.2" transform="matrix(1 -2.323346e-03 2.323346e-03 1 -0.3266 0.3471)" width="284.1" height="267.1"/>
								</defs>
								<clipPath id="SVGID_00000002345930860178791730000009065981625035247268_">
									<use xlink:href="#SVGID_00000097473211571495242370000010234570858000953511_"  style="overflow:visible;"/>
								</clipPath>
								<g style="clip-path:url(#SVGID_00000002345930860178791730000009065981625035247268_);">
									<path class="st6" d="M112.3,164.4l-0.1-55.6l-0.1-45.2C112,35.7,91,11.3,63.1,9.5c-30.6-2-56,22.4-56,52.5l0.4,158.3
										c0.1,28.4,22.8,52.1,51.2,52.4c60.2,0.6,109.4-48.3,109.2-108.3l-0.1-27.1c0-0.6-0.8-0.8-1.1-0.3
										c-10,18.2-29.2,30.6-51.4,30.6C113.7,167.5,112.3,166.1,112.3,164.4z"/>
								</g>
							</g>
						</g>
					</g>
				</g>
			</g>
		</g>
	</g>
</g>
</svg>
