<svg id="Layer_1" data-name="Layer 1" xmlns="http://www.w3.org/2000/svg" viewBox="0 0 500 500"><defs><style>.cls-1{fill:#fff;}</style></defs><rect width="500" height="500"/><path class="cls-1" d="M415,330.86l-11.56,6.42q-8.25,4.59-17.62,9.54t-17.61,9q-8.26,4.05-11.2,5.14a101.13,101.13,0,0,1-26.24,5.69q-12.66.92-26.6-5.32a39.7,39.7,0,0,1-17.07-13,85,85,0,0,1-10.64-19.08,142.67,142.67,0,0,1-6.79-21.66q-2.57-11.19-5.14-20.73h-7.71q-5.13,10.28-11.74,20.73A176.17,176.17,0,0,1,230,327.92a152.36,152.36,0,0,1-15.78,16.33,85.29,85.29,0,0,1-18.71,12.66,92.87,92.87,0,0,1-22.39,7.71,78.84,78.84,0,0,1-26.42.74,59.8,59.8,0,0,1-14.68-3.86,70.63,70.63,0,0,1-31.2-24.22,67.52,67.52,0,0,1-10.64-22.57,106.61,106.61,0,0,1-4-38.35,141.38,141.38,0,0,1,8.44-38.54,165.4,165.4,0,0,1,19.09-36.51A196.89,196.89,0,0,1,142,168.65,201.12,201.12,0,0,1,185.63,138a211,211,0,0,1,50.46-18.72A207.49,207.49,0,0,1,288.57,114a156.56,156.56,0,0,1,50.09,9.54,82,82,0,0,1,18.91,10.1,80.78,80.78,0,0,1,17.24,16.33,70.29,70.29,0,0,1,11.56,21.83,63.66,63.66,0,0,1,2.57,26.61,83.81,83.81,0,0,1-7.52,26.06,90.45,90.45,0,0,1-14.31,21.28,101.52,101.52,0,0,1-19.82,16.89A173.47,173.47,0,0,1,324,275.44q2.94,11,5.33,18.35t3.85,11.38a73.59,73.59,0,0,0,2.57,7.34q3.3,9.54,8.44,10.64a15,15,0,0,0,8.62.37,26.46,26.46,0,0,0,6.79-2.94l47.71-26.42ZM320.68,212.68a47.43,47.43,0,0,0,3.12-13.21,35.06,35.06,0,0,0-2-16.14,38,38,0,0,0-10.64-15.05q-7.71-7-22-10.28a85.92,85.92,0,0,0-15.23-1.1,92.56,92.56,0,0,0-20.55,2.57,142.67,142.67,0,0,0-24,8.07A118.63,118.63,0,0,0,204,182.59a112,112,0,0,0-14.13,12.66,178.7,178.7,0,0,0-12.66,14.87q-5.88,7.69-10.65,15a94.24,94.24,0,0,0-7.34,13.21,104.48,104.48,0,0,0-9.54,28.26,81.89,81.89,0,0,0-.92,23.49,41.78,41.78,0,0,0,5.69,17.25q4.41,7,10.65,9.17c4.4,2,9.54,2,15.41.19s12.6-7.16,20.18-16a58.21,58.21,0,0,0,9-13q3.11-6.42,5.32-10.46a49.81,49.81,0,0,1-21.29-19.45,51.39,51.39,0,0,1-7-27.9,49.29,49.29,0,0,1,7.52-24.58,51.22,51.22,0,0,1,17.8-18,43.52,43.52,0,0,1,21.47-6.6,40.59,40.59,0,0,1,20.37,4.4,39.66,39.66,0,0,1,15.23,14.31q6.06,9.56,6.42,22.76a62,62,0,0,1-1.47,16.7q-1.83,7.89-3.67,13.39l3.67-.73a20.23,20.23,0,0,0,3.67-1.1,75.59,75.59,0,0,0,24.41-13.22Q313.72,228.11,320.68,212.68ZM234.81,225.9q.36-7.71-2.94-9t-5.51.55q-3.66,2.56-3.85,8.44a29.63,29.63,0,0,0,1.65,11,18.14,18.14,0,0,0,2.39,4,10.2,10.2,0,0,0,4.22,3.31,68.82,68.82,0,0,0,2.38-7,48.26,48.26,0,0,0,1.29-5.87A45.34,45.34,0,0,0,234.81,225.9Z"/></svg>