<?xml version="1.0" encoding="utf-8"?>
<!-- Generator: Adobe Illustrator 26.0.3, SVG Export Plug-In . SVG Version: 6.00 Build 0)  -->
<svg version="1.1" id="Layer_1" xmlns="http://www.w3.org/2000/svg" xmlns:xlink="http://www.w3.org/1999/xlink" x="0px" y="0px"
	 viewBox="0 0 185 54" style="enable-background:new 0 0 185 54;" xml:space="preserve">
<style type="text/css">
	.st0{fill:#FFFFFF;stroke:#008B44;stroke-width:1.2412;}
	.st1{fill:#EC1C24;}
	.st2{fill:#FFF100;}
	.st3{fill:#00A551;}
	.st4{fill:#00A551;stroke:#00A551;stroke-width:9.308600e-02;}
</style>
<g id="XMLID_1_">
	
		<ellipse id="XMLID_77_" transform="matrix(1 -2.242496e-03 2.242496e-03 1 -6.064450e-02 6.149628e-02)" class="st0" cx="27.4" cy="27.1" rx="26.3" ry="26.3"/>
	<path id="XMLID_76_" class="st1" d="M27.4,44c9.4,0,17-7.6,17-17c0-9.4-7.6-17-17-17c-9.4,0-17,7.6-17,17C10.4,36.4,18,44,27.4,44
		L27.4,44z"/>
	<path id="XMLID_75_" class="st2" d="M33.6,33.2l-0.1-0.1L33.4,33c0.1-0.2,0-0.4-0.1-0.5l-0.1-0.2c-0.1-0.2-0.3-0.2-0.3-0.4
		c-0.1-0.2-0.4-0.2-0.5-0.4c-0.1,0-0.1-0.1-0.2-0.2c-0.2-0.2-0.5-0.2-0.8-0.1c-0.1,0.1,0,0.3-0.2,0.4c0.1,0.1,0.3,0.3,0.2,0.5
		l-0.2,0l-0.2-0.1c-0.1,0-0.2,0-0.3-0.1l-0.1-0.2c-0.1,0.1-0.3,0.1-0.3,0.3c-0.1,0.1-0.4-0.1-0.5,0c0-0.2-0.3-0.3-0.2-0.5
		c-0.1-0.1-0.2-0.3-0.3-0.3l-0.2-0.2c-0.1-0.2,0-0.5-0.3-0.5c0-0.1-0.1-0.2-0.2-0.3c-0.1-0.1-0.2-0.2-0.2-0.4l-0.1-0.3
		c-0.1,0.1,0,0.3-0.1,0.4l0.1,0c0,0.1-0.1,0.2-0.1,0.3h0l0,0l0,0.2l0.1,0.1l0,0l-0.1,0l0,0l0.1,0c0,0.2-0.1,0.3,0.1,0.4
		c0.2,0.2-0.3,0.2-0.2,0.4l-0.1,0.2l0.1,0.2l0.2,0.2c0.1,0,0,0.2,0.1,0.1c0.1,0.2,0.2,0.4,0.1,0.6c0,0.2,0,0.5-0.2,0.6l0,0h0
		l-0.2,0.2c-0.1,0.1-0.1,0.3-0.2,0.4L27.9,34c-0.1,0-0.1-0.2-0.2-0.1c-0.1,0.1-0.2,0.3-0.3,0.4l-0.2,0c-0.1,0.1-0.1,0.2,0,0.3
		l-0.1,0.1c-0.1,0.1,0,0.2-0.1,0.2c-0.2,0-0.1-0.4-0.3-0.2l-0.2,0l-0.1,0.2l0,0.1l0-0.1l0-0.2c0-0.1,0-0.3-0.1-0.3h0
		c0-0.1,0.2-0.3,0-0.4c-0.1,0.1-0.1,0.2-0.3,0.3l-0.2-0.4c0-0.2,0-0.1,0-0.3c0,0.1,0,0.1-0.1,0.2c-0.1,0.1-0.1,0.2-0.1,0.3
		c-0.1,0-0.1-0.2-0.3-0.2l-0.1,0.3l-0.1,0l0,0l0,0c-0.1,0.1-0.1,0.2-0.2,0.3l0,0.1l-0.1-0.1l-0.1,0l-0.1-0.2l-0.2,0.1l0-0.2l-0.2,0
		c-0.2,0-0.1,0.3-0.3,0.2L23.9,34l-0.3,0c-0.2,0.1,0.2,0.4-0.2,0.5l-0.1-0.1c-0.1,0.2,0,0.5-0.3,0.6l-0.3,0c-0.2,0.1-0.1,0-0.2-0.1
		c-0.1,0-0.1-0.1-0.1-0.2c0,0-0.1,0,0-0.2l0-0.1c-0.2-0.1,0-0.1-0.1-0.2c-0.1-0.2-0.1-0.3-0.1-0.4l0.1-0.2c0-0.1,0-0.2-0.1-0.4h0
		L22.2,33c-0.1-0.1-0.2-0.1-0.1-0.3c0.1-0.2-0.1-0.4,0-0.6c0-0.2-0.1-0.4-0.2-0.5l0,0l0-0.1l0,0c0.1-0.2-0.1-0.3,0-0.5
		c0-0.2-0.3-0.2-0.1-0.4l0.1-0.1l0-0.3c-0.2-0.1-0.1-0.4-0.4-0.3l0,0h0c0-0.1-0.1-0.2,0-0.3v-0.3c0.1-0.1,0.2-0.2,0.3-0.3
		c0.1,0,0.1-0.1,0.2-0.1l-0.2-0.2c-0.1,0-0.2-0.2-0.4-0.1l-0.1,0l-0.2,0l0,0.1c-0.1-0.1-0.3-0.1-0.5-0.4c0-0.2,0.3-0.2,0.3-0.4
		c0.2-0.1,0.6-0.3,0.4-0.4c-0.2-0.2-0.5,0-0.5-0.2l-0.2,0c0-0.1,0-0.2-0.1-0.2l-0.1,0c-0.1,0,0-0.2-0.1-0.2l-0.1,0l-0.2,0l-0.1-0.1
		c0-0.1,0.1-0.1,0.1-0.1h0l0-0.1c0.1-0.1,0.1-0.2,0-0.3l-0.1-0.1c0.2-0.1,0.1-0.2,0-0.3l0.1-0.1c0.1,0,0.2,0.1,0.3,0
		c0.1-0.1,0.3-0.1,0.3-0.3L21,25.6c0.1-0.1,0-0.3,0.1-0.4C21,25,20.8,25.1,20.8,25l0.2,0c0.2-0.2,0-0.4,0-0.6
		c-0.1-0.1-0.2-0.3-0.3-0.3c-0.1,0-0.3-0.1-0.4,0L20.2,24l-0.1-0.1l-0.2,0c-0.2-0.1-0.4-0.1-0.5-0.2l-0.1-0.1l-0.1-0.2
		c-0.2,0-0.2-0.3-0.5-0.3c-0.2,0,0-0.4-0.3-0.3c0-0.1,0-0.3-0.1-0.3v-0.2c0-0.3,0.4-0.3,0.4-0.5l0.2-0.1c0-0.1-0.2-0.1-0.2-0.2
		l0.2-0.2l0.2,0.1c0,0.1,0,0.2,0.1,0.3l0.2-0.1l0-0.2c0.1-0.2,0.4,0.1,0.4-0.1c0-0.2,0-0.5,0.2-0.7c0-0.1-0.2-0.2-0.2-0.3l0.1-0.1
		c0.1,0.2,0.3,0,0.5,0.1l0,0.1c0.1,0.1,0.2-0.1,0.3-0.1h0l0.1,0c0.1,0.1,0.4,0.2,0.5,0.1l0.2-0.1l0.1,0l0.2,0.1l0.1-0.1
		c0-0.1,0-0.2,0.2-0.2c0.1-0.1,0-0.2,0-0.3c-0.1-0.2-0.3-0.1-0.5-0.1c0-0.1,0-0.3-0.2-0.3h0c0-0.1,0.2-0.3,0-0.4l-0.1,0
		c0-0.1,0.1-0.2-0.1-0.3c-0.1,0-0.2,0.1-0.2,0.1c-0.1-0.1-0.4,0.2-0.5,0l-0.3-0.1l-0.2-0.1l0-0.2c-0.1-0.1-0.2-0.1-0.3-0.2
		c0-0.1,0-0.3-0.1-0.3l-0.2-0.1l0,0l-0.1-0.2c-0.3,0-0.2-0.3-0.5-0.3c-0.1,0-0.3-0.1-0.4,0.1l-0.2-0.2c0.1-0.1,0-0.2,0-0.3l0-0.3
		c0.1-0.3,0.6-0.1,0.4-0.5l-0.1-0.1h0c0-0.2,0.2-0.4,0.4-0.4c0.1,0,0.3,0.1,0.4-0.1c0-0.1,0-0.4,0.2-0.4c0.2,0,0.3-0.1,0.5-0.1
		l0.1-0.1L20.3,15l-0.1-0.1l0-0.3l-0.2-0.2l-0.2,0c0-0.1-0.1,0.2-0.3,0c0-0.1,0.2-0.4,0.2-0.6l0.1-0.3c0,0,0-0.1,0.1,0.1l0,0.2
		l0.1,0.1l0.1,0.1l0.1,0l0.1,0l0,0l0,0l0.1,0.1l0,0.1l0.1,0.1l0,0.1l0,0.1l0,0l0.1,0.1l0,0l0.1,0c0.1,0.2,0.1,0.5,0.3,0.6l0,0.2
		c0.1,0.1,0.2,0.2,0.3,0.2l0,0l0.2,0.2l0.2,0l0.1-0.1l0-0.1l0.2-0.1c0-0.2-0.2-0.2-0.2-0.3c0.1,0,0-0.2,0.2-0.1c0,0,0.2,0.1,0.2,0
		l0.1-0.2c0.1,0,0.1,0.2,0.2,0.2l0.2,0v0.2l0.1,0.1c-0.1,0.1-0.1,0.2-0.1,0.3c0.1,0.1,0.2,0.2,0.1,0.4l0,0.1
		c0.2,0.1,0.4,0.2,0.5,0.3c0.2,0.1,0.3,0.5,0.6,0.3l0.1-0.1l0.1,0.2c0.1,0,0.2,0,0.3-0.1l0.1,0.2l0.1,0c0-0.1,0.3-0.1,0.2-0.3l0-0.3
		l0.1-0.1l-0.1-0.2l0.3,0l0,0.1l0.2,0.1c0,0.1,0.1,0.2,0.2,0.3l0,0h0l-0.1,0.2l0,0.1l0.1,0.1c0,0,0.1-0.1,0.1,0l0.1,0.2
		c0.1-0.1,0.2,0,0.3-0.1l0,0l-0.1,0.1l0,0.1l0.2,0c-0.2,0-0.1,0.2-0.3,0.2l-0.2,0.1c-0.1,0.1,0,0.3-0.1,0.4l0,0
		c-0.1,0.2,0.1,0.5,0.2,0.6c0,0.4-0.1,0.7-0.2,1l-0.1,0.2c0.1,0.1,0.1,0.2,0.2,0.3c0.2,0.1,0.3-0.2,0.5,0c0.2,0.2,0.4,0.3,0.7,0.3
		l0.2,0.1c0.1,0.2,0.3,0,0.4,0.1l0.1,0c0.1,0.1,0.2,0.2,0.4,0.2c0.2,0.3,0.4-0.1,0.6-0.1c0.3-0.1,0.5,0.2,0.7-0.1
		c0.1,0,0.2,0.1,0.3,0.1l0.3,0.1c0.1,0.1,0.3,0,0.3,0c0.2,0,0.4-0.1,0.5-0.1c0.1-0.1,0.3,0,0.5,0c0.1,0,0.3-0.1,0.4,0.1l0.1,0
		c0.1,0.1,0.2,0,0.3,0.1l0.1,0l0.1,0.1c0.1,0.2,0.3,0.1,0.4,0l0.3-0.1H33c0.2,0,0.2-0.1,0.5,0l0.1,0.1l0.1-0.1l0.2,0.1
		c0.1,0,0.2-0.1,0.3-0.1l0.1,0c0.2,0,0.1,0,0.3,0l0.2,0.1c0.1,0.1,0.2,0,0.3,0.2c0.2,0.2,0.2,0,0.3,0.1c0.1,0,0.2,0.1,0.3,0.1
		l0.3,0.1l0,0.2c0.1,0.1,0.3,0.1,0.3,0.3c-0.1,0.2-0.3,0.1-0.5,0.1c-0.1-0.1-0.2-0.1-0.3-0.1c-0.1,0.1-0.3,0.1-0.3,0.3l0.1,0
		c-0.1,0.1,0,0.2,0,0.3l0,0.1c-0.2,0.2-0.1,0.5-0.2,0.8v0.2c-0.1,0-0.2-0.2-0.3-0.2l-0.1,0.2l0,0.1C35,23.7,35,23.9,35,24
		c-0.2,0.1-0.4,0.1-0.6,0.1l-0.1,0l0,0.1l0,0.1c-0.2-0.1-0.1,0.1-0.2,0.2c0,0.2,0,0.3,0,0.5L34,25.1L33.9,25c0-0.1,0-0.2-0.1-0.3
		c-0.1,0-0.2,0.1-0.3,0l-0.2,0.1l0.1,0.2l-0.1,0.1c-0.2-0.1,0-0.5-0.3-0.3L32.9,25l0,0c-0.2,0.1,0.1,0.3-0.1,0.4
		c-0.3,0.2-0.6-0.1-0.8-0.2l-0.1,0.1l0.1,0.1c-0.1,0.1,0,0.2-0.1,0.3c-0.1-0.1-0.2,0.2-0.4,0c-0.2,0.1-0.2,0.4-0.2,0.6l0,0.2
		c-0.1,0.2-0.4,0.2-0.4,0.3h0l0.1,0.1l0.1,0c0,0.1-0.2,0.1-0.2,0.2c-0.1,0.3,0.4,0.3,0.2,0.5l0.2,0.2l0.1,0.1c0,0.2,0,0.4,0.2,0.5
		l0,0l-0.1,0.2c0,0.2,0.1,0.4,0.1,0.6c0.1,0.1,0,0.3,0.1,0.4c0,0.1,0.1,0.2,0.2,0.2h0l0,0.1l0,0.1l0.1,0l0.1,0v0l0-0.1l-0.1-0.3
		c0.1-0.2-0.1-0.3-0.1-0.5c0-0.3,0-0.1,0-0.2l0.1-0.1c0.1,0.1,0.1,0.1,0.2,0.2l0.1,0.1c0,0.2,0.3,0.3,0.1,0.6c0,0.1,0.1,0.1,0.1,0.3
		v0c0.1,0.1,0,0,0.3,0.1l0.1,0c0.1-0.1,0,0,0.2-0.1l0.2-0.1l0,0c0.1,0,0.1-0.1,0.3-0.2l0-0.2c0-0.2-0.1-0.2,0.1-0.4l0-0.2l-0.2-0.2
		c0.1-0.2-0.1-0.3,0.1-0.5l0-0.1c0.2,0,0.3-0.1,0.5-0.1l0.1,0c0.1-0.1,0-0.3,0.1-0.4l-0.1-0.2c0-0.1,0.1-0.3,0-0.4l0-0.2l0-0.1
		l0.2,0.1c0,0.1,0.1,0.1,0.2,0.2c0.1,0,0.1,0.1,0.2,0l0.1-0.1L35,27l0,0l0-0.1v0l0.1,0l0.1,0.2l0.1,0.1l0-0.1l0-0.1
		c0-0.1,0.1-0.1,0.1-0.2l0.1,0c0.2,0.1,0,0.3,0,0.4c0.2,0.2-0.1,0.4,0.1,0.5c0,0.2,0,0.4,0.2,0.5l0,0.3l0.1,0.1
		c0.1,0.1,0.3,0.3,0.1,0.4L35.9,29c-0.1,0-0.1,0-0.1,0.1v0.3c0.1,0,0.1,0.3,0.2,0.2l0,0.2c0.1,0.1,0,0.1,0,0.2l0,0v0
		c0,0.2,0.2,0.3,0.1,0.5c0.1,0.1,0.2,0.1,0.2,0.3c0,0.1-0.1,0.3,0.1,0.3c0.1,0,0.1,0.2,0.2,0.3l0,0.3c0.1,0.1,0.1,0.3,0.1,0.5
		c0.1,0,0,0.2,0.1,0.3l0,0.2c0,0.2,0,0.3,0.2,0.4l0,0.2l0,0c0,0.1,0,0.2,0,0.4c0.1,0.1,0.1,0.1,0.1,0.2L36.8,34c0,0.1,0.1,0.2,0,0.3
		c0,0.1,0.2,0.2,0,0.3c0,0.1,0.2,0.2,0.1,0.3c-0.2,0.1,0.1,0.2-0.1,0.3c-0.1,0.3,0,0.6,0,0.9c0.1,0.2,0.1,0.4,0.2,0.6
		c0,0.2,0.2,0.5,0.2,0.7l-0.1,0.2c-0.1,0-0.1-0.2-0.1-0.3c-0.2,0-0.1-0.3-0.3-0.2c-0.1,0.2-0.2-0.1-0.3,0c0-0.1,0-0.3-0.1-0.3
		c-0.2,0.1-0.1-0.2-0.3-0.2c-0.1,0.1-0.1,0.3-0.3,0.2c-0.1,0.1-0.1,0.2-0.2,0.1c-0.1,0-0.2,0-0.2,0.2c0,0.2,0,0.1,0,0.2
		c0.1,0.1,0.2,0.1,0.1,0.3c-0.1,0.1-0.1,0.3-0.1,0.4c0,0.1,0.2,0.3,0.3,0.3c0.1,0.1,0,0.2,0,0.3c0,0.3,0.2,0.5,0.2,0.8l0,0.1
		c0-0.2-0.3-0.1-0.2-0.4c-0.2-0.2-0.1-0.5-0.4-0.7c-0.1-0.3-0.6-0.3-0.4-0.7c0-0.2,0.2-0.6-0.1-0.7L34.4,37v-0.2l0-0.1l0.1-0.1
		c-0.1-0.1,0-0.3,0.1-0.4c0.1-0.2-0.2-0.2-0.1-0.4c-0.1-0.1,0-0.3-0.2-0.3c-0.1,0-0.2,0-0.1-0.1c0-0.1,0.2-0.3,0.1-0.4l-0.1-0.2
		l0.1-0.2L34,34.5l-0.1-0.3c-0.1-0.1,0.1-0.3-0.1-0.3l0-0.2v-0.2l-0.2-0.1l0,0L33.6,33.2L33.6,33.2L33.6,33.2L33.6,33.2z"/>
	<path id="XMLID_74_" class="st2" d="M36,39.8c0.1,0,0,0.1,0.2,0.2L36,40.1c-0.1-0.1-0.4-0.2-0.2-0.4L36,39.8L36,39.8L36,39.8z"/>
	<polygon id="XMLID_73_" class="st2" points="34,37.1 34,37.1 34,37.2 34,37.3 34.1,37.3 34.2,37.3 34.2,37.3 34.2,37.2 34.2,37.2 
		34.3,37.1 34.3,36.8 34.3,36.7 34.2,36.7 34.2,36.7 34.2,36.7 34.2,36.8 34.1,36.9 34.1,36.9 34.1,36.9 34,37 34,37 34,37 34,37 
		34,37.1 	"/>
	<path id="XMLID_72_" class="st2" d="M34.3,36.4C34.2,36.5,34.2,36.5,34.3,36.4l-0.1,0.1l0,0.1l0,0.1l0.1,0l0.1,0l0,0l0,0l0-0.1
		l0.1-0.1l0.1-0.2l0-0.2h0l0,0v0l0,0.1L34.3,36.4L34.3,36.4z"/>
	<path id="XMLID_71_" class="st2" d="M28.9,30.9c0.1,0.3,0.3,0.5,0.5,0.7l-0.1,0.1c0.1,0.2,0.3,0.3,0.3,0.4c0.1,0.2,0,0.4,0.1,0.5
		c0,0.1-0.1,0.2-0.1,0.2c0,0.3,0,0.6-0.2,0.8c0,0.1-0.1,0.3-0.2,0.3l0-0.1l0,0v0l-0.2,0.3l0-0.1l-0.1,0c0-0.1,0-0.2-0.1-0.2
		c-0.1,0-0.1,0.1-0.2,0.2h0l0.1-0.2l0-0.1l-0.2,0l-0.1,0.1c-0.1-0.2,0.2-0.1,0.1-0.3l-0.1-0.1c0.3-0.3,0.4-0.6,0.5-1
		c-0.2-0.2-0.2-0.6-0.3-0.8l-0.2,0.1c0.1-0.2-0.3-0.2-0.1-0.4c0.2-0.1-0.1-0.5,0.3-0.5L28.9,30.9L28.9,30.9z"/>
	<path id="XMLID_70_" class="st2" d="M29.8,33.8l-0.1-0.1c0.1-0.1,0.3-0.5,0.4-0.4C30.2,33.5,30,33.7,29.8,33.8L29.8,33.8z"/>
	<path id="XMLID_69_" class="st2" d="M31.7,31.2c0.1,0.1,0.3-0.1,0.3,0.2c-0.1,0.1-0.2,0.1-0.3,0.1C31.6,31.3,31.6,31.2,31.7,31.2
		L31.7,31.2L31.7,31.2z"/>
	<path id="XMLID_68_" class="st2" d="M28.4,31.5c0,0.1,0.2,0.1,0.1,0.2l0,0.1C28.4,31.8,28.4,31.6,28.4,31.5l-0.1-0.1l0.1,0
		L28.4,31.5L28.4,31.5z"/>
	<path id="XMLID_67_" class="st2" d="M32.5,32.1c0,0.2,0.4,0.4,0.1,0.7l-0.3,0.1l-0.3-0.2c0.1-0.3-0.3-0.3-0.2-0.6
		c0-0.2,0-0.3,0-0.5c0.1-0.1,0.1-0.2,0.3-0.3C32.5,31.6,32.3,32,32.5,32.1L32.5,32.1z"/>
	<path id="XMLID_66_" class="st2" d="M28.8,32c0,0.3,0.2,0.4,0.2,0.6c0,0.2-0.3,0.3-0.2,0.5l-0.1,0.2c0-0.2,0.1-0.5,0.2-0.8
		c-0.1-0.2,0-0.4-0.2-0.6C28.6,31.9,28.6,31.8,28.8,32L28.8,32L28.8,32z"/>
	<path id="XMLID_65_" class="st2" d="M30.9,32.2l0,0.1l0,0l0,0l0,0l0.1,0.1l0.1,0.1l0.1,0c0.1,0,0-0.1,0-0.2
		c-0.1-0.1-0.1-0.2-0.2-0.3L30.9,32.2L30.9,32.2z"/>
	<path id="XMLID_64_" class="st2" d="M28.6,33.6L28.6,33.6c0,0.1,0,0.2-0.1,0.1l-0.1,0c-0.1,0.1-0.1,0.1-0.2,0.1l0.1,0
		c0.1,0,0-0.1,0-0.1l0.1,0l0.1-0.2C28.4,33.6,28.6,33.4,28.6,33.6L28.6,33.6z"/>
	<polygon id="XMLID_63_" class="st2" points="30.2,32.9 30.2,33 30.1,33 30.1,33 30.1,32.9 30.1,32.8 30.2,32.9 30.2,32.9 	"/>
	<path id="XMLID_62_" class="st2" d="M28.4,34.1c-0.1-0.1,0-0.1-0.1-0.2l0.1-0.1C28.4,34,28.4,34,28.4,34.1L28.4,34.1z"/>
	<path id="XMLID_61_" class="st2" d="M30,34.1l-0.2,0.1l0-0.2C29.9,33.9,30,33.9,30,34.1L30,34.1z"/>
	<path id="XMLID_60_" class="st2" d="M23.7,34.1c0.1,0.1,0,0.3,0.2,0.3c0,0.1-0.1,0.3-0.1,0.3l-0.2-0.2
		C23.7,34.4,23.6,34.2,23.7,34.1L23.7,34.1L23.7,34.1z"/>
	<path id="XMLID_59_" class="st2" d="M28.2,34.2L28.2,34.2c-0.1,0-0.2-0.2,0-0.1L28.2,34.2L28.2,34.2z"/>
	<path id="XMLID_58_" class="st2" d="M28.7,34.2l0,0.1l-0.1,0.1l0-0.1c-0.1,0-0.1-0.1-0.1-0.2l0.1-0.1L28.7,34.2L28.7,34.2z"/>
	<path id="XMLID_57_" class="st2" d="M27.7,34.2c0,0.2-0.2,0.2-0.2,0.4c0,0.1,0.1,0.2,0,0.3l-0.1-0.2c0-0.2,0.1-0.2,0.1-0.4l0.1-0.1
		H27.7L27.7,34.2L27.7,34.2z"/>
	<path id="XMLID_56_" class="st2" d="M24.4,34.2l-0.1,0.3l-0.2,0C23.8,34.5,24.4,34,24.4,34.2L24.4,34.2z"/>
	<path id="XMLID_55_" class="st2" d="M28,34.5c-0.1,0-0.1,0.2-0.2,0.2c-0.1-0.2,0.1-0.3,0.2-0.4C28.1,34.4,28,34.4,28,34.5L28,34.5z
		"/>
	<path id="XMLID_54_" class="st2" d="M28.4,34.3c0,0.2-0.2,0.2-0.2,0.2l0-0.1C28.3,34.2,28.3,34.3,28.4,34.3L28.4,34.3z"/>
	<path id="XMLID_53_" class="st2" d="M25.6,34.6c0,0.1-0.2,0.1-0.2,0c-0.1-0.2-0.2-0.5,0-0.5C25.6,34,25.7,34.4,25.6,34.6L25.6,34.6
		z"/>
	<path id="XMLID_52_" class="st2" d="M25.2,34.3L25.2,34.3c-0.1,0.2,0,0.2,0.1,0.4l0.1,0l0.1,0.3L25.3,35l0-0.1l0,0
		c0-0.1-0.3-0.1-0.2-0.3L25,34.5l0.1,0L25.2,34.3l-0.1,0.1C25.1,34.4,25.2,34,25.2,34.3L25.2,34.3z"/>
	<path id="XMLID_51_" class="st2" d="M28.9,34.7l-0.2-0.1l0.2-0.1C28.9,34.5,29.2,34.5,28.9,34.7L28.9,34.7z"/>
	<path id="XMLID_50_" class="st2" d="M23.7,34.7c-0.1,0.2,0,0.4,0.1,0.5l-0.1,0.2l-0.2,0c-0.1-0.1-0.1-0.3-0.1-0.4l0.1-0.1l0.1-0.1
		c0.1-0.1,0-0.2,0.1-0.3L23.7,34.7L23.7,34.7z"/>
	<path id="XMLID_49_" class="st2" d="M22.5,34.8c0.1,0.1-0.1,0.3,0.1,0.4c-0.1,0-0.3-0.1-0.3-0.3L22.5,34.8L22.5,34.8z"/>
	<path id="XMLID_48_" class="st2" d="M24.8,34.8l-0.1,0.1l-0.1,0C24.7,34.8,24.8,34.6,24.8,34.8L24.8,34.8z"/>
	<path id="XMLID_47_" class="st2" d="M23.9,35l-0.1,0.2l-0.1-0.4l0.1-0.1C24.1,34.8,24.1,34.9,23.9,35L23.9,35z"/>
	<path id="XMLID_46_" class="st2" d="M24.6,34.9l-0.2-0.1l-0.1-0.2C24.2,34.7,24.5,34.7,24.6,34.9L24.6,34.9z"/>
	<path id="XMLID_45_" class="st2" d="M26.9,34.9L26.9,34.9L26.9,34.9L26.9,34.9c-0.1,0-0.3,0.2-0.4,0l0-0.1L26.9,34.9L26.9,34.9z"/>
	<path id="XMLID_44_" class="st2" d="M24.2,35.1l0,0.2l0.1,0.1c0,0.1,0,0.2-0.1,0.2L24,35.5c0-0.1,0.1-0.3,0-0.4L24.2,35.1
		L24.2,35.1z"/>
	<polygon id="XMLID_43_" class="st2" points="24.7,35.2 24.6,35.2 24.6,35.3 24.5,35.3 24.4,35.1 24.5,35 24.7,35.2 	"/>
	<path id="XMLID_42_" class="st2" d="M22.7,35.5l0-0.1l0.1,0l0,0.2c0,0.2-0.1,0.1-0.1,0.2L22.7,35.5L22.7,35.5L22.7,35.5z"/>
	<path id="XMLID_41_" class="st2" d="M30.9,32.3L30.9,32.3l0.1,0.2l0,0l0,0.1l0.1,0.1c0.1,0.2,0.1,0.4,0.1,0.6
		c-0.1,0.2-0.3,0.3-0.2,0.5c0,0.1-0.1,0.1-0.2,0.1l0-0.1l0,0.1c-0.2,0.1-0.4,0.1-0.5,0.3l-0.1,0c-0.1-0.1,0-0.3,0-0.4
		c0.1-0.2,0.3-0.2,0.3-0.4c-0.1-0.2,0.2-0.3,0-0.5l0-0.2l0-0.2c0.2-0.2-0.2-0.4,0-0.5c0.1-0.1,0.1-0.2,0.2-0.1L30.9,32.3L30.9,32.3
		L30.9,32.3z"/>
	<path id="XMLID_40_" class="st2" d="M24.6,34.5l-0.1,0.1l-0.1,0C24.4,34.5,24.6,34.3,24.6,34.5L24.6,34.5z"/>
	<path id="XMLID_39_" class="st2" d="M28.9,30.6l0.1,0.2l0,0c0-0.1,0-0.2-0.1-0.3l0,0L28.9,30.6L28.9,30.6z"/>
	<path id="XMLID_38_" class="st2" d="M28.5,30.1l0.1,0.1l0.1,0c0-0.1,0-0.2-0.1-0.3l0,0L28.5,30.1L28.5,30.1z"/>
	<path id="XMLID_37_" class="st2" d="M28.4,30.6l0.1,0.1l0.1,0c0-0.1,0-0.1-0.1-0.2L28.4,30.6L28.4,30.6L28.4,30.6z"/>
	<polygon id="XMLID_36_" class="st2" points="30.1,32.7 30.1,32.9 30.1,33 30,32.9 30.1,32.7 30.1,32.7 30.1,32.7 30.1,32.7 	"/>
	<path id="XMLID_35_" class="st2" d="M25.9,34.7c-0.1-0.1-0.1-0.1-0.2-0.2l0.1-0.1C26,34.4,26.2,34.7,25.9,34.7L25.9,34.7z"/>
	<path id="XMLID_34_" class="st2" d="M22.4,35.3c0-0.2,0.3,0.1,0.3,0.2l-0.1,0C22.5,35.5,22.4,35.5,22.4,35.3L22.4,35.3z"/>
	<path id="XMLID_33_" class="st2" d="M22.6,35.2l0.2,0l0.2,0.1C22.8,35.4,22.5,35.4,22.6,35.2L22.6,35.2z"/>
	<path id="XMLID_32_" class="st2" d="M29.6,33.8l0.1,0.1c-0.1,0.1-0.1,0.3-0.2,0.2C29.4,34.1,29.5,33.9,29.6,33.8L29.6,33.8z"/>
	<path id="XMLID_31_" class="st2" d="M30.2,32.1c0,0.1,0,0.2-0.1,0.2l-0.1,0C30,32.1,30.1,31.8,30.2,32.1L30.2,32.1z"/>
	<path id="XMLID_30_" class="st2" d="M23.1,35.4c-0.1-0.1-0.1-0.1-0.2-0.2l0.1-0.1C23.2,35.1,23.4,35.4,23.1,35.4L23.1,35.4z"/>
	<path id="XMLID_29_" class="st3" d="M22.4,50c-0.4,0.4,0.4,1,0.8,0.6C23.5,50.1,22.8,49.6,22.4,50L22.4,50z"/>
	<path id="XMLID_28_" class="st3" d="M35.7,49.3c-0.1,0.6,0.9,0.6,1,0.1C36.8,48.7,35.9,48.7,35.7,49.3L35.7,49.3z"/>
	<path id="XMLID_22_" class="st3" d="M36.6,45.7l0.8-0.3l-0.6-0.2c0,0-3.1,1.1-3.3,1.2c-0.2,0.1-0.7,0.1-0.9,0.1
		c-0.2,0-0.3-0.2-0.3-0.2L32.1,46l-0.4-0.1l0.4,1.5c-0.1-0.2-0.3-0.3-0.4-0.3c-0.2-0.1-0.7,0-1.3,0l0,0l-3,0.2l-2-0.1
		c0,0-1.7-0.2-2-0.3c-0.4-0.1-1.2-0.3-1.2-0.3l-1-0.3l-4.2-1.8l0.3,0.7c0.1,0.2-0.1,0.2,0.3,0.5c0.3,0.2,0.6,0.2,0.8,0.5
		c0.2,0.3,0.2,0.5,0.1,0.7L18,47c-0.2,0.1-0.5,0.3-0.7,0c0-0.1-0.1-0.2-0.1-0.3l-0.4,0.1c0,0.1,0,0.2,0.1,0.3c0,0.2,0.1,0.6,0.3,0.7
		c0,0,0.2,0.2,0.5,0.3c0.1,0,0.5,0,1.4-0.4c0.6-0.4,0.9,0.2,0.8,0.5l0,0.1l-0.6,1.5l0.3,0.7l1.6-3.7l0.9,0.3c0,0,0.9,0.2,1.2,0.3
		c0.3,0.1,1.4,0.2,1.4,0.2l0,0.2c-0.7,0-1.1,0.1-1.7,0.2c-0.5,0.1-0.8,0.2-1.2,0.4l0.6,0.9c0.4,0.1,0.7,0.2,1,0.4
		c0.5,0.3,0.7,0.7,0.8,0.8l0.3,0.8l0.1,0.2l0.7-3.9l0.9,0.1l2.4,0l0,0.3c-0.7,0.2-1.1,0.4-1.7,0.7c-0.3,0.2-0.5,0.3-0.9,0.5l0.8,0.8
		c0.4,0,0.7,0,1,0.2c0.4,0.2,1,0.7,1.1,0.9l0.2,0.3l0.2,0.2l-0.2-3c0.5-0.1,0.8,0.1,1,0.2c0.3,0.2,0.5,0.7,0.4,0.6
		c0-0.1-0.3-0.3-0.8-0.1c0,0-0.5,0.3-0.1,0.7c0.4,0.5,1.4,0.1,1.3-0.6c0-1.3-1.6-1.6-1.9-1.5l0-0.3c0,0,1.9-0.1,2.3-0.1
		c0.5-0.1,0.9,0.2,0.9,0.3c0.1,0.1,0.1,0.2,0.1,0.4l0.6,2.5l0.6,0.3l-1-4c0,0,0.9-0.2,1.1-0.3c0.3-0.1,2.3-0.8,2.3-0.8l0.1,0.2
		c-0.6,0.4-0.9,0.7-1.3,1.1c-0.3,0.4-0.5,0.6-0.8,1l1,0.4c0.4-0.2,0.7-0.2,1.1-0.2c0.6,0,1,0.2,1.1,0.3l0.7,0.5l0.2,0.1L36.6,45.7
		L36.6,45.7z M20,47.7l-0.1-0.3c-0.1-0.2-0.1-0.3-0.1-0.4c-0.1-0.2-0.2-0.3-0.5-0.4c-0.1,0-0.6,0.1-0.5,0.1c0.2-0.2,0.3-0.6,0.1-0.8
		l-0.1-0.2l1.8,0.8L20,47.7L20,47.7z M24,50.1c-0.1-0.2-0.1-0.2-0.4-0.5c-0.3-0.4-0.6-0.6-1-0.8c0.2-0.1,0.3-0.1,0.7-0.2
		c0.4-0.1,0.5-0.1,1-0.1L24,50.1L24,50.1z M27.7,49.6c-0.1-0.1-0.3-0.2-0.7-0.3c0.2-0.1,0.3-0.2,0.5-0.3c0.4-0.2,0.6-0.3,1-0.4
		l0.1,1.9C28.3,50.1,27.9,49.8,27.7,49.6L27.7,49.6z M36.5,48.2C36.1,48,35.7,48,35.3,48c0.1-0.2,0.2-0.3,0.5-0.6
		c0.3-0.3,0.4-0.4,0.7-0.6l0.7,1.6C36.9,48.3,36.9,48.3,36.5,48.2L36.5,48.2z"/>
	<polygon id="XMLID_21_" class="st1" points="8.3,34.7 10.3,34.7 8.7,35.9 9.3,37.7 7.7,36.6 6.2,37.7 6.8,35.9 5.2,34.7 7.2,34.7 
		7.7,32.9 8.3,34.7 	"/>
	<polygon id="XMLID_20_" class="st1" points="12.9,41.5 14.9,41.5 13.3,42.7 13.9,44.5 12.4,43.4 10.8,44.5 11.4,42.7 9.8,41.5 
		11.8,41.5 12.4,39.7 12.9,41.5 	"/>
	<polygon id="XMLID_19_" class="st1" points="47.1,32.9 47.7,34.7 49.7,34.7 48.1,35.9 48.7,37.7 47.1,36.6 45.6,37.7 46.2,35.9 
		44.6,34.7 46.6,34.7 47.1,32.9 	"/>
	<polygon id="XMLID_18_" class="st1" points="42.5,39.7 43.1,41.5 45.1,41.5 43.5,42.7 44.1,44.5 42.5,43.4 41,44.5 41.6,42.7 
		40,41.5 42,41.5 42.5,39.7 	"/>
	<g id="XMLID_2_">
		<path id="XMLID_17_" class="st4" d="M5.6,22.2c-0.2,0.1-0.3,0.3-0.5,0.4c0,0.1,0,0.2,0,0.3C5,23,5,23.1,4.9,23.1
			c-0.2,0.1-0.3,0.1-0.4,0l-0.3,0.3c0.4,0.1,0.8,0.1,1.1,0.1c0.6,0,1,0.1,1.2,0.1l-0.6,0.1c-0.6,0.1-1.1,0.7-1.1,1.8
			c0,0.3,0,0.6,0.1,0.8c0.1,0.2,0.2,0.3,0.4,0.5c0.2,0.1,0.3,0.2,0.5,0.2c0.2,0,0.4-0.1,0.5-0.4c0-0.1,0-0.1,0-0.2
			c0-0.1,0-0.2-0.2-0.5C6.1,25.8,6,25.6,6,25.6c0-0.2,0.1-0.3,0.2-0.3c0.1,0,0.2,0.2,0.5,0.5c0.2,0.3,0.4,0.5,0.4,0.6
			c0.2-0.2,0.3-0.3,0.5-0.5c-0.2-0.2-0.3-0.4-0.5-0.6c-0.3-0.3-0.5-0.4-0.7-0.4c-0.4,0-0.7,0.3-0.7,0.9c0,0.2,0,0.4,0.1,0.5
			c-0.4-0.2-0.6-0.6-0.5-1.2c0-0.2,0.1-0.4,0.2-0.6c0.1-0.2,0.4-0.4,0.6-0.5c0.3-0.1,0.5-0.2,0.7-0.1l2.1,0.4l0.6-0.4l-4.1-0.7
			C5.5,22.8,5.5,22.5,5.6,22.2z"/>
		<path id="XMLID_16_" class="st4" d="M7.1,17.8l-0.6,0.3l-0.1,0.2l-0.2,0.2c-0.1,0.1-0.2,0.1-0.4,0.1c0,0-0.1,0-0.2,0.1l-0.2,0.1
			c0.5,0.2,0.8,0.3,1,0.4c0.4,0.1,0.7,0.2,1,0.2l-0.6,0.1c-0.6,0.1-1,0.5-1.2,1c0,0.1-0.1,0.2-0.1,0.4c-0.1,0.4,0,0.7,0.2,1
			c0.2,0.2,0.4,0.4,0.7,0.5c0.3,0.1,0.6,0.1,0.9-0.1c0.3-0.2,0.5-0.4,0.6-0.8C8,21.2,8,21,8,20.8c0-0.2-0.1-0.4-0.3-0.4
			c-0.1,0-0.1,0-0.2,0c-0.2,0-0.4,0.2-0.5,0.4c-0.1,0.3,0,0.5,0.2,0.5c0,0,0.1,0,0.2,0c0,0,0,0,0,0c0,0.1-0.2,0.2-0.4,0.3
			c-0.2,0-0.3,0-0.5,0c-0.1-0.1-0.2-0.2-0.3-0.3c-0.1-0.3-0.2-0.6,0-0.9c0.1-0.3,0.4-0.6,0.7-0.7c0.3-0.1,0.6-0.1,0.8,0l2,0.8
			l0.6-0.3l-3.7-1.5C6.8,18.4,6.9,18.1,7.1,17.8z"/>
		<path id="XMLID_15_" class="st4" d="M21.2,7.2c-0.4-0.5-1-0.7-1.6-0.6c-0.2,0-0.3,0.1-0.4,0.1c-0.3,0.1-0.5,0.3-0.7,0.5
			c-0.2,0.2-0.2,0.5-0.1,0.7c0.1,0.2,0.2,0.3,0.4,0.4c0.2,0.1,0.4,0.1,0.6,0l0.2-0.1C20,8,20.1,7.7,20,7.5c-0.1-0.2-0.2-0.3-0.3-0.4
			C19.8,7,19.9,7,19.9,7c0.2-0.1,0.3,0,0.5,0c0.3,0.1,0.4,0.3,0.5,0.5c0.1,0.2,0,0.5-0.1,0.7c-0.2,0.3-0.5,0.5-0.7,0.6
			c-0.6,0.2-1.2,0.2-1.8-0.1c-0.3-0.1-0.5-0.3-0.8-0.5c-0.2-0.1-0.4-0.3-0.8-0.5l-0.3,0.1c0.3,0.3,0.8,0.6,1.4,1
			c0.2,0.1,0.5,0.3,0.8,0.4c0.2,0.1,0.5,0.2,0.6,0.2c0.1,0,0.3,0,0.5,0c0.2,0,0.4-0.1,0.5-0.1c0.3-0.1,0.6-0.3,0.8-0.6
			c0.4-0.4,0.5-0.8,0.4-1.3C21.4,7.5,21.3,7.3,21.2,7.2z"/>
		<path id="XMLID_11_" class="st4" d="M28.1,4.4L28,4c-0.2-0.4-0.5-0.8-0.9-1.1c-0.4-0.2-0.7-0.3-0.9-0.4c-0.6-0.1-1.1-0.1-1.4-0.1
			c-0.1,0-0.2,0-0.4,0.1c-0.5,0.1-0.9,0.3-1.1,0.4c-0.4,0.2-0.5,0.4-0.5,0.6c0,0.2,0.2,0.3,0.5,0.4C23.5,4,23.8,4.1,24.1,4L25,4
			c0.6,0,0.9,0,0.9,0.2c0,0.1-0.1,0.2-0.2,0.2c-1.6,0.1-3.3,0.4-4.9,0.9l0,0c0,0,0,0,0,0c0,0,0,0-0.1,0l0,0
			c-1.9,0.6-3.6,1.4-5.3,2.4c0,0,0,0,0,0l-0.1,0.1l0,0l-0.2,0.1c-0.1,0-0.2,0-0.2,0c-0.1-0.1-0.2-0.1-0.2-0.1
			c-0.1-0.1-0.1-0.1-0.1-0.2l-0.2,0c0.2,0.3,0.3,0.5,0.5,0.7c0.3,0.4,0.6,0.6,0.6,0.7c-0.2-0.1-0.4-0.2-0.5-0.3
			c-0.3-0.2-0.6-0.2-0.9,0c-0.2,0.1-0.4,0.3-0.7,0.5c-1.5,1.2-2.9,2.6-4.1,4.2l0,0c-0.1,0.1-0.1,0.1-0.1,0.1L9,13.6
			c-0.1,0-0.2,0-0.3-0.1l-0.1,0l-0.3,0.1l1.1,0.7l1,0.5c-0.1,0-0.3-0.1-0.7-0.1c-0.4,0-0.7,0-1,0.2c-0.4,0.2-0.7,0.4-0.9,0.8
			c-0.2,0.4-0.3,0.8-0.3,1.1c0,0.3,0.1,0.6,0.3,1c0,0.1,0.1,0.1,0.2,0.2c0.1,0,0.2,0,0.3,0c0.1-0.1,0.2-0.1,0.2-0.2
			c0,0,0-0.1,0.1-0.3c0-0.1,0-0.2,0.1-0.3C8.6,16.9,8.7,16.9,9,17c0.1,0.1,0.1,0.1,0.2,0.2l0.1,0.5c0.2-0.2,0.3-0.3,0.5-0.5
			c-0.1-0.7-0.2-1.4-0.3-2.1c0.2-0.1,0.5-0.1,0.9,0l1.3,1c0,0-0.1,0-0.1,0c-0.1,0-0.3,0.1-0.6,0.2c-0.3,0.2-0.5,0.5-0.7,0.8
			l-0.4,0.6c-0.2,0.3-0.3,0.4-0.3,0.5c-0.3,0.3-0.6,0.4-0.9,0.2c-0.1,0-0.1-0.1-0.1-0.1l-0.3,0.2c0,0,0.2,0.1,0.6,0.3
			c0.2,0.1,0.4,0.1,0.7,0.1c0.2,0,0.4-0.2,0.6-0.3c0.2-0.2,0.3-0.4,0.4-0.6c0.2-0.4,0.4-0.8,0.5-0.9c0.2-0.4,0.5-0.6,0.8-0.7l1,0
			c-0.1-0.1-0.2-0.1-0.3-0.2c0,0,0,0,0.1,0l-3.2-2.4l0.5-0.6l-0.3,0.1l0.3-0.1c0.4-0.5,0.9-1,1.3-1.5c0,0,0,0.2,0,0.4
			c0,0.4,0.1,0.7,0.3,0.8c0.3,0.3,0.7,0.3,1.1,0.2c0.2-0.1,0.3-0.2,0.4-0.3c0.1-0.1,0.3-0.3,0.4-0.6c0,0,0-0.1,0.1-0.1
			c0.1-0.1,0.1-0.1,0.2,0c0.1,0,0.1,0.1,0.2,0.1c0.1,0.1,0.1,0.3,0,0.6c-0.1,0.2-0.2,0.4-0.4,0.5c-0.1,0.1-0.3,0.3-0.5,0.3
			c-0.4,0.1-0.8,0.2-1.2,0.1c-0.5-0.1-0.9-0.3-1.2-0.6c0,0-0.1,0.1-0.3,0.1l0.6,0.5c0.3,0.2,0.5,0.3,0.7,0.3
			c0.4,0.1,0.7,0.2,0.9,0.2c0.6,0,1-0.2,1.4-0.5c0.1-0.1,0.2-0.3,0.3-0.4c0.1-0.3,0.2-0.6,0-1c0-0.1-0.1-0.2-0.1-0.2
			c-0.2-0.2-0.5-0.3-0.9-0.4c-0.2,0-0.3,0-0.4,0l-0.1,0c0,0-0.1,0.1-0.1,0.2c-0.2,0.4-0.3,0.7-0.4,0.8c-0.2,0.2-0.3,0.2-0.4,0.1
			c-0.1-0.1-0.2-0.3-0.2-0.6c0-0.3,0-0.5,0.1-0.6l0,0c0.2,0,0.3,0,0.4,0c0.2,0,0.5-0.1,0.8-0.3c0.3-0.2,0.6-0.4,0.9-0.6
			c0.1,0.4,0.3,0.8,0.5,1.1c0.1,0.2,0.3,0.3,0.6,0.5c0.2,0.1,0.4,0.3,0.7,0.5c0,0,0.1,0,0.2-0.1c0.1,0,0.2-0.1,0.2-0.1l0,0
			c-0.4-0.2-0.8-0.4-0.9-0.7c-0.1-0.1-0.2-0.2-0.3-0.4c-0.1-0.2-0.2-0.5-0.3-0.8c0-0.3,0-0.5,0-0.7c-0.4,0-0.7,0-1,0
			c-0.3,0.4-0.5,0.6-0.6,0.7c-0.1,0.1-0.3,0.3-0.6,0.4c-0.3,0.2-0.5,0.2-0.6,0.1c0,0,0-0.1,0-0.1c0.1-0.1,0.1-0.3,0.1-0.3
			c0.6-0.6,1.3-1.1,2-1.6c0.3-0.2,0.5-0.2,0.8-0.2c0.1,0,0.3,0.1,0.3,0.3l1.6,2.4l0.6,0.1l-2.2-3.5c0.2-0.2,0.5-0.3,0.7-0.4
			c1.7-1,3.5-1.7,5.3-2.3c1.2-0.3,2.4-0.6,3.7-0.7c0.1,0,0.2,0,0.3,0.1c0.1,0.1,0.2,0.2,0.2,0.3c0,0.2,0,0.3-0.1,0.4
			c-0.1,0.1-0.2,0.2-0.4,0.2c0-0.1-0.3-0.2-0.8-0.4c-0.3-0.1-0.6-0.1-0.8-0.1c-0.3,0-0.5,0.1-0.6,0.3c-0.1,0.1-0.2,0.3-0.1,0.5
			c0,0.2,0.1,0.3,0.1,0.3c0.2,0.1,0.4,0.2,0.6,0.1c0.1,0,0.3-0.1,0.3-0.2C24,6.3,24,6.2,24,6.1c0-0.1-0.1-0.2-0.2-0.2l0,0
			c0.2,0,0.4,0,0.7,0.2C24.6,6,24.7,6,24.7,6.1c-0.2,0.1-0.3,0.2-0.4,0.2c-0.1,0.2-0.2,0.3-0.3,0.4C24,6.8,23.9,7,24,7.2
			c0,0.1,0,0.2,0.1,0.3c0,0.1,0.1,0.2,0.3,0.2c0.1,0,0.3,0.1,0.4,0.1c0.1,0,0.3-0.1,0.4-0.2c0.1-0.1,0.2-0.2,0.2-0.3
			c0,0,0-0.1-0.1-0.2C25.1,7,25,6.9,24.8,7c-0.1,0-0.1,0-0.2,0.1c0-0.1,0.1-0.3,0.1-0.4c0.1-0.1,0.3-0.2,0.3-0.3
			c0.1,0,0.2-0.1,0.2-0.1c0,0,0,0,0.1,0c0,0,0,0,0,0c0,0,0.1,0,0.1,0.1c0.1,0.1,0.1,0.2,0.1,0.2l0.1,1.6c-0.1-0.1-0.2-0.2-0.2-0.2
			C25.4,8,25.2,8,24.9,8c-0.1,0-0.1,0-0.3,0c-0.6,0.1-1,0.2-1.2,0.1c-0.2-0.1-0.4-0.3-0.4-0.5c0-0.1,0-0.3,0-0.5l-0.2-0.1
			c0,0,0,0.1-0.1,0.2c0,0.2,0,0.4,0,0.6c0.1,0.2,0.2,0.5,0.4,0.7c0.1,0.1,0.3,0.2,0.5,0.2c0.2,0,0.4,0,0.6,0c0.1,0,0.2-0.1,0.4-0.1
			c0.2-0.1,0.4-0.1,0.5-0.1c0.3,0,0.5,0,0.6,0.2C26,8.8,26.1,8.9,26.1,9l0.2,0.1L26.1,7c0-0.5-0.1-0.7-0.1-0.7
			C26,6.2,25.9,6.1,25.9,6c0,0,0,0,0,0c0.2-0.2,0.3-0.3,0.3-0.5c0-0.1-0.1-0.2-0.2-0.5c-0.1-0.1-0.1-0.2-0.1-0.2c0,0,0.1,0,0.2,0
			l0.1,0c0.3,0,0.5,0,0.8,0v0c0.2,0,0.4,0,0.6,0l0,3.6L28,8.8l0.1-4c0.3,0,0.7,0,1,0.1l-0.5-0.4L28.1,4.4z M9,16.7
			c-0.1-0.1-0.3-0.1-0.5,0c-0.2,0-0.3,0.2-0.4,0.4c-0.2-0.3-0.2-0.8,0.1-1.2c0.1-0.2,0.2-0.3,0.3-0.4c0.2-0.1,0.3-0.1,0.3-0.2
			C8.9,15.8,9,16.3,9,16.7L9,16.7z M26.5,4.4L26.5,4.4C26.4,4.4,26.4,4.4,26.5,4.4C26.4,4.4,26.4,4.4,26.5,4.4L26.5,4.4
			c-0.1,0-0.2,0-0.3,0c0-0.1,0-0.1,0-0.2c0-0.4-0.5-0.7-1.3-0.7c-0.1,0-0.5,0-1.3,0.1c-0.3,0-0.5,0-0.5-0.1c0,0,0-0.1,0-0.1
			c0.3-0.2,0.8-0.4,1.4-0.5c0.7-0.1,1.4,0,1.9,0.2c0.3,0.1,0.5,0.2,0.7,0.4c0.3,0.3,0.4,0.5,0.5,0.6l0.1,0.3
			C27.3,4.3,26.9,4.4,26.5,4.4z"/>
		<path id="XMLID_8_" class="st4" d="M38.1,7.5l-0.3-0.6l-0.3-0.2c0-0.1-0.1-0.2-0.1-0.2c0-0.1,0-0.2,0-0.2c0-0.1,0-0.2,0.1-0.2
			l-0.1-0.2c-0.1,0.3-0.2,0.5-0.3,0.8c-0.1,0.5-0.2,0.8-0.3,0.9c0-0.3,0-0.4,0-0.5c0-0.3-0.2-0.6-0.5-0.8C36.1,6,35.8,6,35.5,5.9
			c-1.4-0.5-2.8-0.9-4.2-1.2l0.4,0.5c1.1,0.2,2.2,0.5,3.2,0.9l-0.1,0.3c-0.6,0-1.2,0-1.9,0c-0.3,0-0.8,0.2-1.3,0.3l0.4,0.8
			c0.4,0.1,0.7,0.3,1,0.6c0.4,0.4,0.7,0.9,0.7,1.6L34,10l1.5-3.8c0.1,0.1,0.3,0.1,0.4,0.2l0,0l0,0c0,0,0.1,0,0.1,0
			c0.3,0.1,0.5,0.4,0.6,0.6c0,0.1,0,0.3,0,0.4l-1.3,2.7l0.2,0.5l1.8-3.7L38.1,7.5z M34,8.9c-0.2-0.6-0.6-1.3-1.3-1.8
			c0.7-0.2,1.4-0.2,2-0.2L34,8.9z"/>
		<path id="XMLID_7_" class="st4" d="M37.7,9.3l-0.4,0.8c0.5,1,0.8,1.7,0.9,2.1l0.1,0.7l0.2-0.3c-0.1-1-0.2-1.7-0.3-2.1
			C38,10,37.8,9.6,37.7,9.3z"/>
		<path id="XMLID_4_" class="st4" d="M39.8,9.4C40,9.2,40,9,39.9,8.7c-0.1-0.3-0.3-0.5-0.5-0.7c-0.2-0.1-0.4-0.2-0.7-0.2
			c-0.4,0-0.6,0.2-0.8,0.4c-0.1,0.2-0.1,0.5,0,0.7c0.1,0.3,0.3,0.5,0.5,0.6c0.1,0.1,0.2,0.1,0.3,0.2c0.1,0,0.3,0,0.5,0
			C39.5,9.7,39.7,9.6,39.8,9.4z M39.5,9c-0.1,0.1-0.1,0.2-0.2,0.2c-0.1,0-0.2,0.1-0.4,0c-0.3,0-0.5-0.1-0.6-0.1
			c-0.2-0.1-0.2-0.2-0.1-0.4c0.1-0.2,0.3-0.3,0.5-0.3c0.3,0,0.5,0,0.7,0.1C39.6,8.6,39.7,8.8,39.5,9z"/>
		<path id="XMLID_3_" class="st4" d="M50,25.7l-1.3,0.2c0.1,0,0.2-0.1,0.4-0.4c0.2-0.2,0.4-0.3,0.4-0.4c0.2-0.3,0.3-0.5,0.3-0.7
			c0,0,0-0.1-0.1-0.2c-0.1-0.3-0.3-0.6-0.4-0.7c-0.1-0.1-0.2-0.1-0.4-0.2c0.1-0.1,0.3-0.2,0.3-0.4l0.1-0.3c0.1-0.2,0.1-0.4,0-0.7
			c-0.1-0.3-0.2-0.7-0.3-1v0c0,0,0,0,0,0c0,0,0,0,0,0c0,0,0,0,0,0c-0.4-1.6-1.1-3.2-1.9-4.7l0,0c-0.5-0.9-1-1.7-1.6-2.5v0l-0.1-0.1
			c0,0,0,0,0,0v0l-0.1-0.2c0-0.1,0-0.2,0-0.2c0-0.1,0.1-0.2,0.1-0.2c0.1-0.1,0.1-0.1,0.1-0.2l0-0.2c-0.2,0.2-0.4,0.4-0.6,0.6
			c-0.4,0.4-0.6,0.6-0.6,0.7c0.1-0.2,0.2-0.4,0.2-0.5c0.1-0.3,0.1-0.6-0.1-0.9c-0.1-0.2-0.3-0.3-0.4-0.5c-1.2-1.3-2.5-2.5-3.9-3.5
			l0.2,0.6c1.1,0.8,2.1,1.7,3,2.7l-0.8,0.8c0.1-0.2,0.1-0.3,0.1-0.4l0-0.2c0-0.1-0.1-0.3-0.2-0.4c-0.1-0.1-0.2-0.1-0.4-0.2
			c-0.2,0-0.3,0-0.4,0.1l0-0.3c-0.1-0.3-0.2-0.6-0.5-0.8c-0.3-0.2-0.6-0.3-0.9-0.2c-0.3,0.1-0.5,0.2-0.7,0.4
			c-0.3,0.3-0.3,0.7-0.1,1.1c0.1,0.2,0.2,0.4,0.4,0.6c0.3,0.2,0.5,0.3,0.8,0.2c0.1,0,0.1-0.1,0.2-0.3c0.1-0.2,0-0.4-0.2-0.6
			c-0.1-0.1-0.2-0.1-0.4-0.2c-0.1,0-0.2,0-0.3,0.1c-0.1,0.1-0.1,0.2-0.1,0.3c-0.3-0.3-0.3-0.6-0.1-0.8c0,0,0.1-0.1,0.1-0.1
			c0.1-0.1,0.3-0.1,0.5-0.1c0.2,0,0.4,0.1,0.5,0.2c0.2,0.2,0.4,0.4,0.4,0.6c0,0.1,0,0.2,0,0.4c0,0.1,0,0.2-0.1,0.2l0.2,0.1l0.1-0.2
			c0.1-0.1,0.1-0.1,0.2-0.2c0.1,0,0.2,0,0.3,0.1c0.1,0.1,0.2,0.3,0.2,0.4c0,0.2,0,0.3-0.1,0.4L41,14.3l0,0.6l3-2.7l0.3,0.4l0,0
			l0.1,0.1c0.2,0.3,0.3,0.5,0.2,0.9c0,0.1-0.1,0.3-0.2,0.4l-2.3,1.8L42,16.2l3.3-2.5l0.4,0.6c0.3,0.4,0.6,0.9,0.8,1.3
			c-0.8-0.2-1.4-0.2-1.9,0c-0.1,0-0.2,0.1-0.3,0.2c-0.6,0.4-1,1-1,1.6c0,0.2,0,0.4,0.2,0.7c0.1,0.2,0.2,0.3,0.4,0.4
			c0.2,0.1,0.4,0.1,0.5,0c0.2-0.1,0.3-0.2,0.3-0.5c0-0.1,0-0.2,0-0.3c0-0.1-0.1-0.1-0.2-0.2c-0.2-0.1-0.4-0.2-0.5,0
			c-0.1,0.1-0.1,0.2-0.2,0.3c0,0.1,0,0.1,0,0.1c0,0,0,0-0.1-0.1c0-0.1-0.1-0.1-0.1-0.2c0-0.5,0.2-1,0.6-1.2c0.1,0,0.3-0.1,0.6-0.3
			c0.1-0.1,0.3-0.1,0.5-0.1c0.3-0.1,0.7,0,1.1,0.2c0.4,0.2,0.7,0.4,0.9,0.8l0.2,0.4l-2,1l-0.2,0.8c0.4,0,0.9,0.2,1.4,0.5
			c0.3,0.2,0.5,0.4,0.7,0.7c-0.4,0-0.8,0.1-1.1,0.2c-0.3,0.1-0.6,0.3-0.9,0.5l-0.4,0.3l0,0.3c0.4-0.2,0.7-0.4,0.8-0.4l0.3-0.1
			c0.5-0.2,1.2-0.2,2,0.1c0.1-0.3,0.2-0.7,0.2-1c-0.3-0.5-0.7-0.8-1-1.1c-0.1,0-0.2-0.2-0.5-0.3c-0.2-0.1-0.4-0.2-0.3-0.2l1.5-0.7
			c0.5,1.2,1,2.4,1.3,3.7l0.1,0.6c0,0.1,0,0.3,0,0.5c-0.1,0.2-0.2,0.3-0.3,0.3c0-0.1-0.1-0.1-0.1-0.2l-0.2-0.2
			c-0.2-0.2-0.5-0.3-0.7-0.3c0,0-0.1,0-0.1,0.1c-0.2,0.2-0.3,0.4-0.3,0.6c0,0.1,0.1,0.3,0.2,0.4c0.1,0.1,0.2,0.2,0.4,0.3
			c-0.2,0.2-0.4,0.5-0.3,0.8c0,0.3,0.1,0.5,0.3,0.5c0,0,0.1,0,0.3,0c0.2,0,0.3-0.1,0.4-0.3c0.1-0.1,0.1-0.3,0.3-0.5
			c0.1,0,0.2,0,0.2,0.2c0.1,0.1,0.1,0.2,0.1,0.3c0,0.2-0.1,0.4-0.3,0.7c-0.2,0.2-0.4,0.3-0.5,0.3l-2.5,0.1l-0.4,0.5l4-0.2l0,0.9
			l0.4-0.5c0-0.2,0.1-0.4,0.2-0.4c0.1-0.1,0.2-0.1,0.3-0.1c0.1-0.1,0.2-0.2,0.2-0.3L50,25.7z"/>
	</g>
</g>
<g>
	<path d="M68.9,8.8L92.2,30V10.1h7.2v35.1L76.1,24.1v19.8h-7.2V8.8z"/>
	<path d="M114.9,38.2c1.6,0,2.9-0.3,3.8-0.9c0.9-0.6,1.4-1.5,1.4-2.6c0-0.8-0.2-1.4-0.6-1.9c-0.4-0.5-1.2-1.1-2.5-1.7l-5.7-2.6
		c-2.6-1.2-4.3-2.5-5.4-3.9c-1-1.4-1.5-3-1.5-5c0-1.6,0.3-3.1,1-4.3c0.6-1.2,1.5-2.3,2.6-3.1c1.1-0.8,2.3-1.5,3.7-1.9
		c1.4-0.4,2.9-0.6,4.4-0.6c1.8,0,3.5,0.3,5.1,0.9c1.7,0.6,3,1.4,4.1,2.4v7.5c-1.5-1.5-3-2.6-4.7-3.4c-1.6-0.8-3.3-1.2-4.8-1.2
		c-1.3,0-2.3,0.3-3.1,0.9c-0.8,0.6-1.1,1.3-1.1,2.3c0,0.6,0.2,1.2,0.6,1.6c0.4,0.5,1,0.9,1.9,1.4l5.2,2.4c1.5,0.6,2.7,1.3,3.7,1.9
		c1,0.6,1.8,1.4,2.4,2.1c0.6,0.8,1.1,1.6,1.3,2.5c0.3,0.9,0.4,1.9,0.4,3c0,1.7-0.3,3.2-1,4.6s-1.6,2.4-2.7,3.3
		c-1.1,0.9-2.4,1.5-3.9,2c-1.5,0.4-3,0.7-4.6,0.7c-1.9,0-3.8-0.3-5.7-0.9c-1.8-0.6-3.4-1.4-4.8-2.4v-7.4
		C108.2,36.7,111.7,38.2,114.9,38.2z"/>
	<path d="M131.9,43.9V10.1h11c2.4,0,4.7,0.4,6.8,1.2s3.9,2,5.5,3.5s2.8,3.3,3.7,5.3c0.9,2,1.4,4.3,1.4,6.8c0,2.4-0.5,4.7-1.4,6.7
		c-0.9,2-2.1,3.8-3.7,5.3c-1.6,1.5-3.4,2.7-5.5,3.5c-2.1,0.8-4.4,1.3-6.8,1.3H131.9z M142.3,37.8c1.5,0,3-0.3,4.3-0.8
		c1.3-0.5,2.4-1.3,3.3-2.3c0.9-1,1.6-2.1,2.2-3.4c0.5-1.3,0.8-2.7,0.8-4.3c0-1.5-0.3-2.9-0.8-4.2c-0.5-1.3-1.2-2.4-2.1-3.4
		c-0.9-1-2-1.7-3.3-2.3c-1.3-0.6-2.7-0.8-4.2-0.8h-3.2v21.5H142.3z"/>
	<path d="M165.3,43.9V10.1h7.3v33.7H165.3z"/>
</g>
</svg>
